# xmcd
#
# Track frame offsets: 
#        180
#        22582
#        35454
#        50478
#        61822
#        74527
#        93530
#        107555
#        124434
#        136522
#        154279
#        167025
#
# Disc length: 2378 seconds
#
# Revision: 10
# Processed by: cddbd v1.5.2PL0 Copyright (c) Steve Scherf et al.
# Submitted via: ExactAudioCopyFreeDBPlugin 1.0
#
DISCID=9b09480c,9e09440c,aa09480c
DTITLE=Various Artist - Blues Collection [Madacy Entertainment] [disc 2]
DYEAR=1999
DGENRE=Blues
TTITLE0=Joe Turner - Wee Baby Blues
TTITLE1=John Lee Hooker - Frisco Blues
TTITLE2=Billie Holiday - Don't Explain
TTITLE3=Elmore Hames - Look on Yonder Wall
TTITLE4=B.B. King - Please Love Me
TTITLE5=Johnny Otis - Slow Fuse
TTITLE6=Billie Holiday - God Bless the Child
TTITLE7=Gatemouth Moore - Goin' Down Slow
TTITLE8=Gatemouth Moore - Did You Ever Love a Woman
TTITLE9=Joe Turner - Piney Brown Blues
TTITLE10=Louis Jordan - Outskirts of Town
TTITLE11=Billie Holiday - Fooling Myself
EXTD=
EXTT0=
EXTT1=
EXTT2=
EXTT3=
EXTT4=
EXTT5=
EXTT6=
EXTT7=
EXTT8=
EXTT9=
EXTT10=
EXTT11=
PLAYORDER=
